#!OML:ASF H:\LiuWeirdWalks\Patient Classification 1\Patient 1\Session 1\male.ASF
:FULLY-SPECIFIED
:DEGREES
961
root 2.65619 18.0706 25.1244 5.66701 10.2249 2.85389
lowerback 12.7722 0.315942 6.52196
upperback 0.777157 2.17074 10.9059
thorax -6.60595 1.07981 7.70049
lowerneck -23.0855 -1.61514 4.58586
upperneck 12.7295 0.0226621 -20.3557
head 7.84802 -1.83328 -7.78261
rclavicle 2.70347e-014 -2.22639e-014
rhumerus -34.6114 -51.346 -29.6056
rradius 26.4992
rwrist 4.31284
rhand -21.2081 1.64583
rfingers 7.12502
rthumb 5.17341 -28.271
lclavicle 2.70347e-014 -2.22639e-014
lhumerus -6.52508 0.515562 16.8228
lradius 25.4499
lwrist 50.0588
lhand -30.9893 -14.8932
lfingers 7.12502
lthumb -4.27284 15.0437
rfemur -22.6392 -1.20789 14.9727
rtibia 36.4839
rfoot -9.0514 -19.8309
rtoes -4.29957
lfemur -4.67458 2.53273 -16.5691
ltibia 52.8058
lfoot 1.4756 2.91778
ltoes -15.1109
962
root 2.64173 18.0687 25.2167 5.56628 10.0785 2.52583
lowerback 12.7386 0.229463 6.62904
upperback 0.831587 2.0513 10.8297
thorax -6.50966 1.01526 7.57192
lowerneck -23.0124 -1.54501 4.59727
upperneck 12.7131 0.0873802 -20.2064
head 7.83611 -1.78304 -7.71771
rclavicle 7.95139e-015 3.18055e-015
rhumerus -35.0822 -51.5877 -28.1952
rradius 26.5228
rwrist 4.4109
rhand -21.1779 1.62662
rfingers 7.12502
rthumb 5.2026 -28.2895
lclavicle 7.95139e-015 3.18055e-015
lhumerus -6.56446 1.70268 16.9705
lradius 25.23
lwrist 49.0494
lhand -30.8109 -14.812
lfingers 7.12502
lthumb -4.10053 15.1283
rfemur -22.2268 -1.21191 15.4545
rtibia 36.3803
rfoot -9.35012 -19.7354
rtoes -4.34883
lfemur -5.24271 2.6368 -16.18
ltibia 53.108
lfoot 0.676805 3.37043
ltoes -15.3475
963
root 2.62564 18.0652 25.3078 5.46942 9.89936 2.17477
lowerback 12.7016 0.159665 6.72255
upperback 0.889223 1.95095 10.7518
thorax -6.41076 0.960628 7.44548
lowerneck -22.946 -1.48795 4.57216
upperneck 12.7009 0.140419 -20.0229
head 7.82471 -1.73754 -7.63586
rclavicle 0 -5.08889e-014
rhumerus -35.6062 -51.8585 -26.6671
rradius 26.5378
rwrist 4.53863
rhand -21.1563 1.55933
rfingers 7.12502
rthumb 5.22347 -28.3563
lclavicle 0 -5.08889e-014
lhumerus -6.60466 2.9169 17.1488
lradius 24.9946
lwrist 47.9426
lhand -30.5995 -14.7519
lfingers 7.12502
lthumb -3.89641 15.1922
rfemur -21.8326 -1.18205 15.9637
rtibia 36.2742
rfoot -9.65172 -19.6405
rtoes -4.37918
lfemur -5.81547 2.76966 -15.7539
ltibia 53.3585
lfoot -0.0935648 3.82679
ltoes -15.5111
964
root 2.60605 18.0607 25.3984 5.38176 9.6573 1.81589
lowerback 12.6677 0.129495 6.76817
upperback 0.946925 1.89615 10.6669
thorax -6.31902 0.929722 7.33027
lowerneck -22.8942 -1.44721 4.52244
upperneck 12.6933 0.17591 -19.8191
head 7.8146 -1.70065 -7.54541
rclavicle 6.59965e-014 4.13472e-014
rhumerus -36.2021 -52.0767 -25.0363
rradius 26.577
rwrist 4.60798
rhand -21.1289 1.46837
rfingers 7.12502
rthumb 5.24986 -28.4466
lclavicle 6.59965e-014 4.13472e-014
lhumerus -6.63827 3.93604 17.3417
lradius 24.7536
lwrist 46.8412
lhand -30.3591 -14.7468
lfingers 7.12502
lthumb -3.66429 15.2015
rfemur -21.4635 -1.0432 16.489
rtibia 36.164
rfoot -9.94629 -19.5877
rtoes -4.37083
lfemur -6.3974 2.96588 -15.2955
ltibia 53.5611
lfoot -0.842576 4.26955
ltoes -15.6247
965
root 2.58562 18.0556 25.4898 5.2961 9.39088 1.45219
lowerback 12.6275 0.0690091 6.69857
upperback 1.01098 1.78509 10.6087
thorax -6.21723 0.875279 7.32162
lowerneck -22.8285 -1.33267 4.5646
upperneck 12.6486 0.290289 -19.6802
head 7.80153 -1.6254 -7.48315
rclavicle 1.98785e-014 4.13472e-014
rhumerus -36.5127 -52.0925 -23.6652
rradius 26.6527
rwrist 4.47082
rhand -21.1759 1.25335
rfingers 7.12502
rthumb 5.20448 -28.6627
lclavicle 1.98785e-014 4.13472e-014
lhumerus -6.72401 6.01674 17.6255
lradius 24.3812
lwrist 44.9241
lhand -30.0518 -14.7178
lfingers 7.12502
lthumb -3.36749 15.2353
rfemur -21.0918 -0.892019 17.0194
rtibia 36.049
rfoot -10.2505 -19.5211
rtoes -4.36267
lfemur -6.96662 3.17884 -14.8234
ltibia 53.7099
lfoot -1.57329 4.72227
ltoes -15.706
966
root 2.56538 18.05 25.581 5.21159 9.10888 1.09351
lowerback 12.5809 0.0265428 6.65128
upperback 1.06884 1.69889 10.5201
thorax -6.1188 0.83165 7.26106
lowerneck -22.7528 -1.23974 4.58268
upperneck 12.623 0.379152 -19.5066
head 7.78864 -1.56058 -7.40777
rclavicle 7.95139e-015 8.5875e-014
rhumerus -36.8501 -51.9853 -22.2677
rradius 26.7588
rwrist 4.11436
rhand -21.2802 0.931145
rfingers 7.12502
rthumb 5.10382 -28.9874
lclavicle 7.95139e-015 8.5875e-014
lhumerus -6.81311 7.70942 17.8923
lradius 24.0585
lwrist 43.2176
lhand -29.7204 -14.7827
lfingers 7.12502
lthumb -3.04744 15.1753
rfemur -20.7163 -0.76423 17.5406
rtibia 35.9296
rfoot -10.5598 -19.4134
rtoes -4.3586
lfemur -7.52168 3.39461 -14.3545
ltibia 53.8053
lfoot -2.27592 5.17261
ltoes -15.7727
967
root 2.54533 18.0447 25.6727 5.13129 8.80924 0.759833
lowerback 12.5181 -0.0233891 6.5509
upperback 1.13546 1.59114 10.4176
thorax -6.0012 0.77861 7.21854
lowerneck -22.6654 -1.11035 4.66324
upperneck 12.5633 0.499303 -19.3646
head 7.76709 -1.47869 -7.34915
rclavicle -1.35174e-014 -1.68569e-013
rhumerus -37.0518 -51.7702 -20.9957
rradius 26.8953
rwrist 3.55928
rhand -21.4563 0.519457
rfingers 7.12502
rthumb 4.93376 -29.4031
lclavicle -1.35174e-014 -1.68569e-013
lhumerus -6.93169 9.60798 18.1729
lradius 23.7435
lwrist 41.4869
lhand -29.4485 -14.7808
lfingers 7.12502
lthumb -2.78489 15.1808
rfemur -20.3371 -0.655874 18.0294
rtibia 35.8107
rfoot -10.8749 -19.2678
rtoes -4.3743
lfemur -8.05762 3.61224 -13.9128
ltibia 53.8418
lfoot -2.93947 5.60763
ltoes -15.8332
968
root 2.52702 18.0398 25.7631 5.06234 8.52625 0.457277
lowerback 12.4399 -0.07767 6.47044
upperback 1.20336 1.47575 10.2752
thorax -5.87125 0.720492 7.12061
lowerneck -22.6088 -0.990983 4.7229
upperneck 12.537 0.60752 -19.1658
head 7.75896 -1.40098 -7.27062
rclavicle 2.38542e-015 7.95139e-014
rhumerus -37.2554 -51.5255 -19.7213
rradius 27.0553
rwrist 2.9053
rhand -21.6411 0.090762
rfingers 7.12502
rthumb 4.7553 -29.8359
lclavicle 2.38542e-015 7.95139e-014
lhumerus -7.04344 11.3715 18.4522
lradius 23.4615
lwrist 39.9262
lhand -29.2022 -14.7732
lfingers 7.12502
lthumb -2.54694 15.1914
rfemur -19.9643 -0.642892 18.4743
rtibia 35.6993
rfoot -11.1952 -19.0477
rtoes -4.38175
lfemur -8.59745 3.79231 -13.5142
ltibia 53.8269
lfoot -3.56455 6.02519
ltoes -15.8981
969
root 2.5109 18.0353 25.8508 5.02677 8.26959 0.2419
lowerback 12.3447 -0.131476 6.37435
upperback 1.26364 1.35412 10.0733
thorax -5.73847 0.658703 6.96584
lowerneck -22.5493 -0.889429 4.77076
upperneck 12.5062 0.684932 -18.916
head 7.7434 -1.33338 -7.17503
rclavicle -8.74653e-015 -9.54166e-015
rhumerus -37.5333 -51.3716 -18.3355
rradius 27.1939
rwrist 2.27934
rhand -21.8232 -0.350175
rfingers 7.12502
rthumb 4.5795 -30.2807
lclavicle -8.74653e-015 -9.54166e-015
lhumerus -7.26219 12.1759 18.6505
lradius 23.365
lwrist 39.1003
lhand -29.0233 -14.7142
lfingers 7.12502
lthumb -2.37423 15.2524
rfemur -19.6236 -0.749423 18.8095
rtibia 35.6041
rfoot -11.5192 -18.7425
rtoes -4.38348
lfemur -9.16424 3.92397 -13.2288
ltibia 53.7648
lfoot -4.13218 6.42103
ltoes -15.9822
970
root 2.49473 18.0313 25.9364 5.02694 8.01689 0.0873782
lowerback 12.224 -0.17918 6.23496
upperback 1.32407 1.22966 9.8321
thorax -5.5915 0.596076 6.79219
lowerneck -22.5185 -0.79416 4.80946
upperneck 12.4895 0.749761 -18.6161
head 7.73458 -1.26933 -7.0632
rclavicle -1.59028e-015 -1.27222e-014
rhumerus -37.9073 -51.4108 -16.7865
rradius 27.2708
rwrist 1.90923
rhand -21.9013 -0.723165
rfingers 7.12502
rthumb 4.50404 -30.6553
lclavicle -1.59028e-015 -1.27222e-014
lhumerus -7.62801 11.9607 18.7592
lradius 23.4564
lwrist 38.972
lhand -28.8836 -14.6053
lfingers 7.12502
lthumb -2.23926 15.3626
rfemur -19.3303 -0.892943 19.0734
rtibia 35.531
rfoot -11.8392 -18.4123
rtoes -4.36849
lfemur -9.77247 4.03115 -13.0136
ltibia 53.667
lfoot -4.66813 6.78545
ltoes -16.1655
971
root 2.47831 18.0275 26.0196 5.06656 7.76422 -0.0159991
lowerback 12.0775 -0.231415 6.02462
upperback 1.38367 1.08663 9.57157
thorax -5.43124 0.525779 6.64081
lowerneck -22.5078 -0.694076 4.83642
upperneck 12.4842 0.818101 -18.2693
head 7.73237 -1.20104 -6.93345
rclavicle -1.59028e-015 -5.40694e-014
rhumerus -38.2817 -51.5826 -15.1711
rradius 27.303
rwrist 1.77358
rhand -21.884 -1.05152
rfingers 7.12502
rthumb 4.52073 -30.9833
lclavicle -1.59028e-015 -5.40694e-014
lhumerus -8.16206 11.1283 18.8078
lradius 23.6872
lwrist 39.1714
lhand -28.7385 -14.4058
lfingers 7.12502
lthumb -2.09913 15.5636
rfemur -19.0927 -1.05867 19.277
rtibia 35.4778
rfoot -12.1516 -18.0674
rtoes -4.34819
lfemur -10.4318 4.11444 -12.8574
ltibia 53.5426
lfoot -5.17116 7.12196
ltoes -16.3333
972
root 2.45971 18.0235 26.1008 5.13417 7.49038 -0.0756016
lowerback 11.9238 -0.261008 5.74893
upperback 1.44237 0.964747 9.28876
thorax -5.27071 0.466976 6.49899
lowerneck -22.5176 -0.609904 4.84589
upperneck 12.4782 0.862412 -17.8828
head 7.72944 -1.14211 -6.79037
rclavicle 8.74653e-015 -7.63333e-014
rhumerus -38.6952 -51.751 -13.5067
rradius 27.3391
rwrist 1.72197
rhand -21.8181 -1.31634
rfingers 7.12502
rthumb 4.58441 -31.2467
lclavicle 8.74653e-015 -7.63333e-014
lhumerus -8.78405 9.55294 18.8375
lradius 24.0335
lwrist 39.7996
lhand -28.5773 -14.2411
lfingers 7.12502
lthumb -1.94349 15.7298
rfemur -18.899 -1.16513 19.4377
rtibia 35.4354
rfoot -12.4503 -17.7625
rtoes -4.30004
lfemur -11.1355 4.20781 -12.7397
ltibia 53.4026
lfoot -5.64371 7.42479
ltoes -16.5124
973
root 2.43941 18.0194 26.1817 5.20444 7.19896 -0.152024
lowerback 11.7736 -0.31367 5.37874
upperback 1.50543 0.804187 9.03842
thorax -5.10722 0.391313 6.45434
lowerneck -22.5099 -0.466505 4.94042
upperneck 12.4179 0.964565 -17.5545
head 7.7141 -1.05408 -6.67336
rclavicle 2.62396e-014 9.85972e-014
rhumerus -38.8695 -51.8807 -12.0426
rradius 27.3749
rwrist 1.66658
rhand -21.7859 -1.57861
rfingers 7.12502
rthumb 4.61554 -31.5083
lclavicle 2.62396e-014 9.85972e-014
lhumerus -9.44895 8.7498 18.9286
lradius 24.291
lwrist 39.9049
lhand -28.3846 -14.0375
lfingers 7.12502
lthumb -1.75739 15.935
rfemur -18.7107 -1.20678 19.6211
rtibia 35.3868
rfoot -12.7397 -17.5051
rtoes -4.26552
lfemur -11.857 4.31574 -12.5903
ltibia 53.2521
lfoot -6.10828 7.69774
ltoes -16.6689
974
root 2.41796 18.0149 26.2618 5.26338 6.903 -0.261946
lowerback 11.6327 -0.356768 5.03874
upperback 1.57405 0.662806 8.78278
thorax -4.94395 0.324023 6.38395
lowerneck -22.5212 -0.33587 5.03149
upperneck 12.3564 1.04622 -17.2058
head 7.69843 -0.974846 -6.55185
rclavicle 4.77083e-015 -9.54166e-015
rhumerus -39.1149 -52.1427 -10.4592
rradius 27.3711
rwrist 1.77284
rhand -21.766 -1.79869
rfingers 7.12502
rthumb 4.63476 -31.728
lclavicle 4.77083e-015 -9.54166e-015
lhumerus -10.0134 8.26971 19.0951
lradius 24.4549
lwrist 39.8161
lhand -28.1797 -13.8779
lfingers 7.12502
lthumb -1.55942 16.0961
rfemur -18.507 -1.21134 19.8445
rtibia 35.32
rfoot -13.0197 -17.2782
rtoes -4.24038
lfemur -12.5866 4.43179 -12.3926
ltibia 53.0969
lfoot -6.55959 7.95251
ltoes -16.7613
